
<svg width="1200" height="400" xmlns="http://www.w3.org/2000/svg">

  <rect width="1200" height="400" fill="#0d1117"/>

  <rect x="20" y="60" width="1160" height="300"
        rx="12"
        fill="#161b22"
        stroke="#58a6ff"
        stroke-width="2"/>

  <circle cx="50" cy="90" r="7" fill="#ff5f56"/>
  <circle cx="75" cy="90" r="7" fill="#ffbd2e"/>
  <circle cx="100" cy="90" r="7" fill="#27c93f"/>

  <text x="130" y="97"
        fill="#8b949e"
        font-family="monospace"
        font-size="18">
    Mohammed-Musab / README.md
  </text>

  <!-- Neural network graphic -->
  <circle cx="170" cy="180" r="8" fill="#58a6ff"/>
  <circle cx="170" cy="260" r="8" fill="#58a6ff"/>

  <circle cx="270" cy="140" r="8" fill="#7ee787"/>
  <circle cx="270" cy="220" r="8" fill="#7ee787"/>
  <circle cx="270" cy="300" r="8" fill="#7ee787"/>

  <circle cx="380" cy="180" r="8" fill="#f2cc60"/>
  <circle cx="380" cy="260" r="8" fill="#f2cc60"/>

  <line x1="170" y1="180" x2="270" y2="140" stroke="#58a6ff"/>
  <line x1="170" y1="180" x2="270" y2="220" stroke="#58a6ff"/>
  <line x1="170" y1="180" x2="270" y2="300" stroke="#58a6ff"/>

  <line x1="170" y1="260" x2="270" y2="140" stroke="#58a6ff"/>
  <line x1="170" y1="260" x2="270" y2="220" stroke="#58a6ff"/>
  <line x1="170" y1="260" x2="270" y2="300" stroke="#58a6ff"/>

  <line x1="270" y1="140" x2="380" y2="180" stroke="#58a6ff"/>
  <line x1="270" y1="220" x2="380" y2="180" stroke="#58a6ff"/>
  <line x1="270" y1="300" x2="380" y2="180" stroke="#58a6ff"/>

  <line x1="270" y1="140" x2="380" y2="260" stroke="#58a6ff"/>
  <line x1="270" y1="220" x2="380" y2="260" stroke="#58a6ff"/>
  <line x1="270" y1="300" x2="380" y2="260" stroke="#58a6ff"/>

  <!-- Terminal text -->
  <text x="520" y="140"
        fill="#7ee787"
        font-family="monospace"
        font-size="30">
    # Training the model...
  </text>

  <text x="520" y="190"
        fill="#58a6ff"
        font-family="monospace"
        font-size="28">
    model.fit(
  </text>

  <text x="570" y="235"
        fill="#f2cc60"
        font-family="monospace"
        font-size="28">
    Mohammed_Musab,
  </text>

  <text x="570" y="280"
        fill="#ffffff"
        font-family="monospace"
        font-size="28">
    epochs=∞
  </text>

  <text x="520" y="325"
        fill="#58a6ff"
        font-family="monospace"
        font-size="28">
    )
  </text>

  <text x="40" y="385"
        fill="#8b949e"
        font-family="monospace"
        font-size="18">
    Status: Building AI tools
  </text>

</svg>
