
<svg width="1200" height="450" xmlns="http://www.w3.org/2000/svg">

<rect width="1200" height="450" fill="#0d1117"/>

<rect x="20" y="50" width="1160" height="350"
fill="#161b22"
stroke="#58a6ff"
stroke-width="2"
rx="10"/>

<circle cx="55" cy="80" r="7" fill="#ff5f56"/>
<circle cx="80" cy="80" r="7" fill="#ffbd2e"/>
<circle cx="105" cy="80" r="7" fill="#27c93f"/>

<text x="140" y="86"
fill="#8b949e"
font-family="monospace"
font-size="18">
Mohammed-Musab / README.md
</text>

<!-- Neural Network -->

<circle cx="140" cy="170" r="8" fill="#58a6ff"/>
<circle cx="140" cy="270" r="8" fill="#58a6ff"/>

<circle cx="250" cy="130" r="8" fill="#7ee787"/>
<circle cx="250" cy="220" r="8" fill="#7ee787"/>
<circle cx="250" cy="310" r="8" fill="#7ee787"/>

<circle cx="360" cy="170" r="8" fill="#f2cc60"/>
<circle cx="360" cy="270" r="8" fill="#f2cc60"/>

<line x1="140" y1="170" x2="250" y2="130" stroke="#58a6ff"/>
<line x1="140" y1="170" x2="250" y2="220" stroke="#58a6ff"/>
<line x1="140" y1="170" x2="250" y2="310" stroke="#58a6ff"/>

<line x1="140" y1="270" x2="250" y2="130" stroke="#58a6ff"/>
<line x1="140" y1="270" x2="250" y2="220" stroke="#58a6ff"/>
<line x1="140" y1="270" x2="250" y2="310" stroke="#58a6ff"/>

<line x1="250" y1="130" x2="360" y2="170" stroke="#58a6ff"/>
<line x1="250" y1="220" x2="360" y2="170" stroke="#58a6ff"/>
<line x1="250" y1="310" x2="360" y2="170" stroke="#58a6ff"/>

<line x1="250" y1="130" x2="360" y2="270" stroke="#58a6ff"/>
<line x1="250" y1="220" x2="360" y2="270" stroke="#58a6ff"/>
<line x1="250" y1="310" x2="360" y2="270" stroke="#58a6ff"/>

<!-- Terminal -->

<text x="500" y="130"
fill="#7ee787"
font-family="monospace"
font-size="28">
# Evaluating model...
</text>

<text x="500" y="190"
fill="#58a6ff"
font-family="monospace"
font-size="30">
model.fit(
</text>

<text x="550" y="245"
fill="#f2cc60"
font-family="monospace"
font-size="32">
Mohammed Musab,
</text>

<text x="550" y="295"
fill="#ffffff"
font-family="monospace"
font-size="30">
epochs=∞
</text>

<text x="500" y="345"
fill="#58a6ff"
font-family="monospace"
font-size="30">
)
</text>

<text x="500" y="390"
fill="#8b949e"
font-family="monospace"
font-size="18">
AI/ML Student • Data Science • IOAI 2025
</text>

<text x="40" y="430"
fill="#8b949e"
font-family="monospace"
font-size="16">
Last Updated: 2026-07-22 19:20 UTC
</text>

</svg>
